<svg width="316" height="220" viewBox="0 0 316 220" fill="none" xmlns="http://www.w3.org/2000/svg">
<g opacity="0.5">
<path opacity="0.5" d="M158.002 200.303C232.116 200.303 292.197 198.59 292.197 196.477C292.197 194.364 232.116 192.65 158.002 192.65C83.8881 192.65 23.8068 194.364 23.8068 196.477C23.8068 198.59 83.8881 200.303 158.002 200.303Z" fill="#044D0B"/>
<g opacity="0.3">
<path opacity="0.8" d="M158.02 196.171C212.192 196.171 256.106 152.257 256.106 98.0855C256.106 43.9144 212.192 0 158.02 0C103.849 0 59.935 43.9144 59.935 98.0855C59.935 152.257 103.849 196.171 158.02 196.171Z" fill="#F5FFF5"/>
<path opacity="0.6" d="M121.911 179.18C144.354 156.737 144.354 120.349 121.911 97.906C99.4677 75.4629 63.0801 75.4628 40.637 97.906C18.1938 120.349 18.1938 156.737 40.637 179.18C63.0801 201.623 99.4677 201.623 121.911 179.18Z" fill="#F5FFF5"/>
<path opacity="0.6" d="M275.363 179.18C297.806 156.737 297.806 120.349 275.363 97.906C252.92 75.4629 216.532 75.4628 194.089 97.906C171.646 120.349 171.646 156.737 194.089 179.18C216.532 201.623 252.92 201.623 275.363 179.18Z" fill="#383938"/>
<path opacity="0.5" d="M280.665 107.875C296.042 92.4977 296.042 67.5668 280.665 52.19C265.288 36.8131 240.357 36.8131 224.98 52.1899C209.603 67.5668 209.603 92.4976 224.98 107.875C240.357 123.251 265.288 123.251 280.665 107.875Z" fill="#F5FFF5"/>
<path opacity="0.5" d="M91.0214 107.872C106.398 92.4947 106.398 67.5639 91.0214 52.187C75.6445 36.8101 50.7136 36.8101 35.3368 52.187C19.9599 67.5639 19.9599 92.4947 35.3368 107.872C50.7136 123.248 75.6445 123.248 91.0214 107.872Z" fill="#F5FFF5"/>
</g>
</g>
<g opacity="0.5">
<path opacity="0.3" d="M77.2809 107.939H39.4898C38.5146 107.939 37.7241 108.729 37.7241 109.705V194.403C37.7241 195.378 38.5146 196.168 39.4898 196.168H77.2809C78.2561 196.168 79.0466 195.378 79.0466 194.403V109.705C79.0466 108.729 78.2561 107.939 77.2809 107.939Z" fill="#068113"/>
<path opacity="0.3" d="M118.603 131.296H80.8123C79.8371 131.296 79.0466 132.087 79.0466 133.062V194.405C79.0466 195.381 79.8371 196.171 80.8123 196.171H118.603C119.579 196.171 120.369 195.381 120.369 194.405V133.062C120.369 132.087 119.579 131.296 118.603 131.296Z" fill="#068113"/>
<path opacity="0.3" d="M191.803 31.5742H122.132C121.157 31.5742 120.366 32.3647 120.366 33.3399V194.405C120.366 195.38 121.157 196.171 122.132 196.171H191.803C192.778 196.171 193.569 195.38 193.569 194.405V33.3399C193.569 32.3647 192.778 31.5742 191.803 31.5742Z" fill="#068113"/>
<path opacity="0.3" d="M235.192 95.7056H195.298C194.322 95.7056 193.532 96.4961 193.532 97.4712V194.403C193.532 195.378 194.322 196.168 195.298 196.168H235.192C236.167 196.168 236.957 195.378 236.957 194.403V97.4712C236.957 96.4961 236.167 95.7056 235.192 95.7056Z" fill="#068113"/>
<path opacity="0.3" d="M276.514 111.892H238.723C237.748 111.892 236.957 112.683 236.957 113.658V194.405C236.957 195.38 237.748 196.171 238.723 196.171H276.514C277.489 196.171 278.28 195.38 278.28 194.405V113.658C278.28 112.683 277.489 111.892 276.514 111.892Z" fill="#068113"/>
</g>
<g opacity="0.2">
<path d="M156.969 75.859C166.095 75.859 173.493 68.461 173.493 59.3352C173.493 50.2094 166.095 42.8115 156.969 42.8115C147.843 42.8115 140.445 50.2094 140.445 59.3352C140.445 68.461 147.843 75.859 156.969 75.859Z" fill="white"/>
</g>
<path opacity="0.3" d="M235.761 79.1049C235.761 79.1049 247.603 87.1355 244.755 109.156C241.903 131.172 239.979 133.06 242.592 138.9C245.205 144.739 245.95 183.302 228.304 188.421C210.657 193.544 201.181 192.392 201.181 192.392L219.803 73.9385L235.765 79.1049H235.761Z" fill="#011A04"/>
<path d="M113.036 178.004C111.415 179.251 110.415 178.386 108.583 180.211C107.782 181.011 108.248 187.09 111.483 186.552C112.463 185.911 113.586 184.987 114.558 184.17C114.327 182.441 114.096 180.721 113.865 178.996C113.59 178.649 113.287 178.41 113.032 178L113.036 178.004Z" fill="url(#paint0_linear_2078_41244)"/>
<path d="M98.3218 170.312C100.222 177.152 102.512 184.015 105.791 190.269C108.097 189.56 110.009 188.6 111.459 186.636C111.24 186.748 110.638 186.266 110.535 186.178C110.168 185.863 109.905 185.608 109.686 185.246C108.882 183.915 108.95 182.649 108.822 181.127C108.551 177.968 108.308 174.985 106.209 172.396C104.906 170.786 103.114 170.193 100.951 169.946C100.776 169.926 98.3019 170.229 98.3258 170.316L98.3218 170.312Z" fill="url(#paint1_linear_2078_41244)"/>
<path d="M225.746 171.416C225.105 171.938 224.44 172.436 223.735 172.922C217.959 176.917 211.51 178.423 204.483 177.945C194.716 177.288 184.988 176.168 175.261 175.077C166.167 174.057 158.073 172.675 149.15 176.037C145.672 177.347 142.131 178.144 138.494 178.945C134.375 179.857 130.233 180.67 126.11 181.554C124.883 181.821 114.929 184.916 114.462 184.382C112.985 182.697 111.718 180.721 112.184 178.391C117.769 175.415 122.788 172.81 127.652 170.52C127.652 170.52 127.671 170.512 127.711 170.492C128.528 170.137 137.486 166.297 147.788 163.238C158.598 160.032 199.492 157.542 199.492 157.542L202.201 156.415C203.806 156.55 205.403 156.69 207.228 156.793C208.502 155.977 210.195 154.881 211.988 153.71L225.75 171.412L225.746 171.416Z" fill="url(#paint2_linear_2078_41244)"/>
<path style="mix-blend-mode:multiply" opacity="0.5" d="M202.858 171.034C202.858 171.034 207.861 172.376 207.698 169.835C207.63 168.795 207.602 167.696 207.598 166.76C207.59 165.633 206.463 164.856 205.407 165.254C200.751 167.007 189.49 170.907 178.822 172.042L200.727 180.933L202.858 171.03V171.034Z" fill="url(#paint3_linear_2078_41244)"/>
<path d="M205.363 115.322L204.28 114.928C204.22 118.047 200.253 128.18 198.516 132.483C198.026 133.689 197.715 134.438 197.715 134.438C192.788 138.844 185.853 145.086 183.65 147.046C183.65 147.046 184.976 148.97 185.885 152.049C189.135 150.101 192.322 148.03 195.469 145.91C197.17 144.763 198.922 143.596 200.659 142.377C200.663 142.377 200.667 142.377 200.675 142.369C202.153 141.692 203.459 140.7 204.607 139.497C206.037 138.007 207.232 136.195 208.224 134.263C211.948 127.013 212.86 118.075 212.86 118.075L205.367 115.326L205.363 115.322Z" fill="url(#paint4_linear_2078_41244)"/>
<path d="M183.65 147.042C183.65 147.042 181.782 148.942 181.148 150.539C180.515 152.14 181.993 150.647 181.993 150.647C181.993 150.647 176.317 156.235 177.599 157.992C178.878 159.749 185.885 152.045 185.885 152.045L185.737 147.571L183.65 147.038V147.042Z" fill="url(#paint5_linear_2078_41244)"/>
<path d="M105.727 183.84C105.727 183.84 101.975 183.872 100.628 183.912C100.039 183.928 97.581 190.361 101.7 191.421L105.659 190.138L106.372 185.051L105.727 183.84Z" fill="url(#paint6_linear_2078_41244)"/>
<path d="M93.004 171.91C93.2549 186.541 94.912 193.217 94.912 193.217C98.9671 193.305 101.7 191.417 101.7 191.417C101.572 191.504 100.923 190.751 100.847 190.652C100.584 190.309 100.393 189.919 100.254 189.513C99.7319 188.027 100.138 186.7 100.433 185.222C101.05 182.151 101.56 178.698 100.186 175.75C99.3336 173.926 97.7362 172.675 95.8003 172.165C95.645 172.125 93 171.715 93 171.906L93.004 171.91Z" fill="url(#paint7_linear_2078_41244)"/>
<path d="M232.685 71.3336C232.63 71.3017 232.57 71.2659 232.51 71.234C221.867 65.2629 211.151 70.3218 208.725 82.1923C208.2 84.7696 205.081 99.7033 208.913 100.643C212.223 101.452 213.29 96.9787 231.028 103.711C239.031 106.75 243.855 98.6517 241.608 91.2824C241.055 89.462 240.218 87.7372 239.696 85.9088C238.055 80.1568 238.449 74.6796 232.682 71.3336H232.685Z" fill="url(#paint8_linear_2078_41244)"/>
<path d="M105.5 190.294C105.5 190.294 137.761 193.712 154.723 188.266C155.659 187.964 156.647 187.876 157.619 188.011C171.911 189.983 186.725 192.548 201.181 192.397C207.909 192.325 214.171 190.023 219.489 185.936C222.373 183.721 225.113 181.12 226.651 177.766C227.882 175.077 228.148 172.062 227.993 169.142C227.949 168.306 227.595 161.291 226.914 161.072L218.624 158.403L216.13 160.402L202.858 171.042C200.261 171.006 197.329 171.026 194.043 171.13C190.816 171.229 187.251 171.405 183.327 171.691C181.873 171.795 180.376 171.914 178.818 172.05C174.827 172.396 170.509 172.843 165.84 173.416C127.417 178.129 124.138 182.068 104.755 183.849C104.755 183.849 102.974 186.259 105.5 190.298V190.294Z" fill="url(#paint9_linear_2078_41244)"/>
<path d="M217.421 92.0552C217.421 92.0552 217.405 104.212 213.486 105.304C213.486 105.304 218.64 112.231 225.631 103.667C225.631 103.667 225.129 97.2176 226.866 92.3977L217.417 92.0552H217.421Z" fill="url(#paint10_linear_2078_41244)"/>
<path d="M237.74 111.438C237.74 111.438 230.005 103.945 225.723 103.559C225.723 103.559 223.006 106.953 217.449 106.562C214.195 106.204 215.684 102.842 215.848 102.539C215.266 103.523 213.808 104.32 212.852 104.794C212.346 105.049 211.821 105.268 211.291 105.459C211.283 105.463 211.279 105.467 211.271 105.467C211.183 105.499 211.1 105.531 211.012 105.559C211.012 105.559 211.004 105.559 211 105.562C208.136 106.614 206.782 107.67 205.455 110.43C204.862 111.669 204.36 112.948 203.925 114.254C203.925 114.254 203.925 114.258 203.925 114.262C203.619 115.182 203.348 116.11 203.113 117.051C202.79 117.764 202.344 118.592 201.715 119.54C199.496 122.874 200.197 125.957 200.197 125.957L201.376 130.044L201.384 130.028C201.276 132.251 201.225 134.474 201.181 136.693C201.181 136.772 201.181 136.856 201.181 136.94C201.181 138.015 201.177 139.095 201.165 140.17C201.165 140.174 201.165 140.178 201.165 140.178C201.153 141.409 201.125 142.636 201.085 143.843C201.069 144.237 201.057 144.632 201.041 145.018C200.822 150.16 200.336 154.809 199.492 157.542C199.691 157.681 207.969 163.525 222.034 161.904C223.591 161.724 225.221 161.449 226.918 161.071C226.918 161.071 226.918 161.071 226.918 161.063C226.918 161.055 226.93 161.043 226.937 161.019C226.937 161.011 226.941 161.003 226.949 160.999C226.969 160.947 227.001 160.86 227.041 160.748C227.049 160.724 227.061 160.701 227.073 160.669C227.081 160.645 227.093 160.621 227.101 160.593C227.129 160.533 227.153 160.462 227.18 160.39C227.212 160.302 227.248 160.207 227.288 160.103C227.312 160.047 227.332 159.988 227.356 159.928C227.435 159.709 227.531 159.466 227.631 159.195C227.654 159.127 227.678 159.063 227.706 158.996C227.734 158.908 227.77 158.828 227.802 158.737C227.806 158.721 227.814 158.705 227.818 158.685C227.838 158.625 227.858 158.569 227.881 158.514C227.897 158.474 227.909 158.438 227.921 158.398C227.933 158.366 227.949 158.33 227.961 158.299C227.961 158.295 227.965 158.287 227.965 158.279C228.029 158.103 228.101 157.912 228.172 157.717C228.264 157.466 228.36 157.203 228.459 156.928C228.838 155.881 229.264 154.666 229.726 153.315C230.136 152.12 230.574 150.818 231.02 149.432C231.303 148.567 231.59 147.671 231.877 146.743C231.957 146.488 232.036 146.229 232.116 145.97C232.188 145.743 232.255 145.52 232.327 145.293C232.347 145.213 232.371 145.137 232.395 145.062C232.498 144.723 232.602 144.381 232.701 144.038C232.753 143.867 232.805 143.688 232.857 143.516C232.936 143.253 233.012 142.99 233.092 142.727C233.136 142.572 233.183 142.425 233.227 142.269C233.45 141.509 233.665 140.74 233.881 139.959C233.948 139.72 234.012 139.485 234.076 139.25C234.227 138.704 234.37 138.155 234.518 137.605C234.912 136.107 235.295 134.585 235.645 133.064C235.649 133.036 235.657 133.008 235.661 132.98C235.88 132.04 236.087 131.112 236.282 130.176C236.318 130.005 236.354 129.825 236.39 129.654C237.816 122.715 238.601 116.266 237.744 111.442L237.74 111.438Z" fill="url(#paint11_linear_2078_41244)"/>
<path d="M205.69 129.782C205.742 129.802 205.921 129.87 206.208 129.973C205.993 129.91 205.818 129.846 205.69 129.782Z" fill="url(#paint12_linear_2078_41244)"/>
<path d="M196.712 120.556L196.437 120.783C196.512 120.688 196.604 120.612 196.712 120.556Z" fill="url(#paint13_linear_2078_41244)"/>
<path d="M211.936 81.9416C211.936 81.9416 212.956 86.634 211.888 90.1076C210.821 93.5811 211.988 98.1381 216.011 101.106C216.011 101.106 225.587 100.628 228.16 95.4254C228.16 95.4254 228.734 93.0871 229.192 91.6173C229.65 90.1474 231.897 89.5579 231.128 87.0444C230.359 84.5308 229.116 86.0286 229.116 86.0286C229.116 86.0286 229.017 84.1206 228.802 82.5152C228.587 80.906 211.94 81.9456 211.94 81.9456L211.936 81.9416Z" fill="url(#paint14_linear_2078_41244)"/>
<path d="M211.936 81.9417C211.936 81.9417 215.633 91.8683 229.586 86.1721C243.54 80.4758 220.938 78.4961 220.938 78.4961L211.932 81.9377L211.936 81.9417Z" fill="url(#paint15_linear_2078_41244)"/>
<path d="M200.659 170.237L216.513 164.186L190.963 157.072L200.659 170.237Z" fill="url(#paint16_linear_2078_41244)"/>
<path d="M200.659 170.237L167.545 165.011L160.068 137.466L193.182 142.692L200.659 170.237Z" fill="url(#paint17_linear_2078_41244)"/>
<path d="M232.203 129.961C230.881 127.304 230.526 120.508 229.77 122.098C229.12 123.464 230.841 134.355 224.531 135.582C224.285 135.629 224.03 135.665 223.755 135.681C216.533 136.147 205.328 132.929 205.328 132.929C209.96 136.904 217.202 137.024 223.289 137.553C222.623 138.561 221.922 139.561 221.205 140.533C219.146 143.321 216.951 145.906 215.107 147.958C212.605 150.742 210.741 152.551 210.741 152.551L212.976 157.554C212.976 157.554 219.696 153.69 224.229 151.834C226.603 150.862 228.375 150.44 228.284 151.4C228.216 152.101 227.75 152.965 227.085 153.877C225.129 156.554 221.464 159.589 221.317 159.717H221.313C216.951 160.9 210.135 160.8 199.496 157.534C199.695 157.673 207.973 163.517 222.038 161.896C222.317 161.864 222.603 161.828 222.89 161.788C224.185 161.613 225.527 161.374 226.922 161.063C226.922 161.063 226.929 161.031 226.937 161.011C226.937 161.008 226.941 160.996 226.949 160.988C226.969 160.936 227.001 160.852 227.045 160.741C227.053 160.717 227.065 160.689 227.077 160.661C227.089 160.633 227.101 160.609 227.109 160.581C227.133 160.514 227.157 160.45 227.188 160.374C227.22 160.287 227.256 160.191 227.296 160.087C227.32 160.032 227.34 159.972 227.364 159.912C227.447 159.693 227.539 159.45 227.635 159.179C227.658 159.111 227.686 159.048 227.71 158.98C227.742 158.896 227.774 158.809 227.806 158.725C227.81 158.709 227.818 158.689 227.822 158.673C227.846 158.617 227.862 158.562 227.885 158.502C227.897 158.466 227.913 158.422 227.925 158.386C227.933 158.367 227.941 158.347 227.949 158.327C227.953 158.311 227.961 158.303 227.965 158.287C227.965 158.283 227.965 158.275 227.969 158.267C228.037 158.088 228.105 157.9 228.176 157.705C228.268 157.454 228.363 157.191 228.463 156.917C228.499 156.817 228.539 156.713 228.575 156.61C228.921 155.638 229.312 154.527 229.73 153.304C230.14 152.109 230.574 150.806 231.028 149.42C231.307 148.551 231.594 147.655 231.885 146.735C231.96 146.48 232.044 146.221 232.124 145.962C232.196 145.739 232.263 145.512 232.335 145.285C232.355 145.209 232.383 145.134 232.403 145.054C232.506 144.715 232.61 144.373 232.709 144.03C232.765 143.859 232.813 143.684 232.865 143.509C232.944 143.246 233.02 142.983 233.1 142.716C233.144 142.564 233.191 142.413 233.235 142.258C233.454 141.497 233.673 140.728 233.888 139.951C233.952 139.712 234.02 139.477 234.088 139.238C234.239 138.693 234.382 138.147 234.526 137.597C234.92 136.095 235.299 134.578 235.657 133.056C235.661 133.028 235.669 133 235.673 132.968C235.697 132.16 235.693 131.706 235.693 131.706C235.693 131.706 233.534 132.614 232.215 129.961H232.203Z" fill="url(#paint18_linear_2078_41244)"/>
<path d="M210.741 152.555C210.741 152.555 208.873 154.455 208.24 156.052C207.606 157.654 209.084 156.16 209.084 156.16C209.084 156.16 203.408 161.748 204.69 163.505C205.969 165.262 212.976 157.558 212.976 157.558L212.828 153.085L210.741 152.551V152.555Z" fill="url(#paint19_linear_2078_41244)"/>
<path d="M237.74 111.438C235.418 109.347 230.817 117.027 231.371 120.441C231.311 123.56 227.344 133.693 225.607 137.995C225.117 139.202 224.806 139.951 224.806 139.951C219.879 144.357 212.944 150.599 210.741 152.559C210.741 152.559 212.067 154.483 212.976 157.562C216.226 155.614 219.413 153.543 222.56 151.424C224.261 150.276 226.013 149.109 227.75 147.89C227.754 147.89 227.758 147.89 227.766 147.882C229.244 147.205 230.55 146.213 231.698 145.01C233.128 143.52 234.323 141.708 235.315 139.776C239.039 132.526 239.951 123.588 239.951 123.588C239.951 123.588 240.067 113.53 237.744 111.438H237.74Z" fill="url(#paint20_linear_2078_41244)"/>
<path d="M215.083 94.8672C215.254 94.8792 215.422 94.9349 215.593 94.9787C216.469 95.2138 217.473 95.2337 218.329 94.9031C218.835 94.7079 220.086 93.8395 220.445 94.672C220.656 95.162 220.213 96.1021 219.998 96.5402C219.612 97.3329 218.963 98.0061 218.162 98.3846C217.067 98.9024 216.023 98.4762 215.342 97.5401C215.015 97.09 213.816 94.8951 214.999 94.8633C215.027 94.8633 215.055 94.8633 215.083 94.8633V94.8672Z" fill="#FF7171"/>
<path d="M183.86 58.7652L184.017 94.4012L157.197 78.4967L154.196 76.714L183.86 58.7652Z" fill="url(#paint21_linear_2078_41244)"/>
<path d="M139.668 76.7789L136.681 78.5864L110.005 94.7278L109.847 59.0918L139.668 76.7789Z" fill="url(#paint22_linear_2078_41244)"/>
<path d="M184.017 94.402L184.025 96.2843C184.032 97.863 182.821 99.1479 181.321 99.157L112.742 99.4586C111.242 99.4651 110.019 98.1916 110.012 96.6104L110.005 94.7281L136.681 78.5868L139.668 76.7793L144.704 79.7651C144.964 79.9207 145.237 80.0472 145.516 80.1419C145.609 80.1743 145.702 80.2042 145.798 80.229C146.175 80.3302 146.562 80.3811 146.947 80.3809C147.333 80.3781 147.72 80.3251 148.096 80.2207C148.189 80.1944 148.284 80.1656 148.377 80.1309C148.657 80.0318 148.926 79.904 149.186 79.7476L154.196 76.7174L157.2 78.4985L184.017 94.402Z" fill="url(#paint23_linear_2078_41244)"/>
<path d="M183.818 49.5947L183.86 58.7656L154.196 76.7145L149.187 79.7446C147.8 80.5833 146.098 80.5894 144.704 79.7647L139.668 76.7788L109.847 59.0917L109.806 49.9208C109.799 48.3421 111.01 47.0572 112.51 47.0481L181.089 46.7466C182.589 46.74 183.812 48.0135 183.818 49.5947Z" fill="url(#paint24_linear_2078_41244)"/>
<g style="mix-blend-mode:multiply" opacity="0.2">
<path d="M183.86 58.7652L183.873 61.9561L157.197 78.4967L154.196 76.714L183.86 58.7652Z" fill="url(#paint25_linear_2078_41244)"/>
<path d="M139.668 76.7779L136.681 78.5854L109.861 62.2817L109.847 59.0908L139.668 76.7779Z" fill="url(#paint26_linear_2078_41244)"/>
</g>
<path style="mix-blend-mode:multiply" opacity="0.3" d="M157.198 78.4975L154.21 80.3495L149.2 83.3797C148.508 83.7982 147.741 84.0076 146.972 84.0139L146.949 84.0144C146.179 84.0149 145.411 83.8108 144.717 83.3997L139.681 80.4138L136.678 78.5884L139.665 76.7809L144.701 79.7667C144.961 79.9223 145.234 80.0488 145.513 80.1434C145.605 80.1758 145.699 80.2057 145.794 80.2306C146.172 80.3318 146.559 80.3827 146.944 80.3825C147.329 80.3797 147.716 80.3267 148.093 80.2223C148.186 80.196 148.28 80.1671 148.374 80.1324C148.653 80.0333 148.923 79.9056 149.182 79.7492L154.192 76.719L157.197 78.5L157.198 78.4975Z" fill="url(#paint27_linear_2078_41244)"/>
<defs>
<linearGradient id="paint0_linear_2078_41244" x1="115.962" y1="180.296" x2="108.177" y2="184.107" gradientUnits="userSpaceOnUse">
<stop stop-color="#F0877E"/>
<stop offset="1" stop-color="#FABEB2"/>
</linearGradient>
<linearGradient id="paint1_linear_2078_41244" x1="106.324" y1="189.002" x2="103.679" y2="169.611" gradientUnits="userSpaceOnUse">
<stop stop-color="#23402B"/>
<stop offset="1" stop-color="#025A1B"/>
</linearGradient>
<linearGradient id="paint2_linear_2078_41244" x1="225.527" y1="164.62" x2="120.629" y2="173.141" gradientUnits="userSpaceOnUse">
<stop stop-color="#22412A"/>
<stop offset="1" stop-color="#005C1A"/>
</linearGradient>
<linearGradient id="paint3_linear_2078_41244" x1="207.425" y1="172.432" x2="174.314" y2="176.751" gradientUnits="userSpaceOnUse">
<stop stop-color="#1F4329"/>
<stop offset="1" stop-color="#015B1A"/>
</linearGradient>
<linearGradient id="paint4_linear_2078_41244" x1="207.103" y1="154.095" x2="185.271" y2="100.521" gradientUnits="userSpaceOnUse">
<stop stop-color="#02781C"/>
<stop offset="1" stop-color="#20D305"/>
</linearGradient>
<linearGradient id="paint5_linear_2078_41244" x1="216.159" y1="121.895" x2="180.172" y2="153.877" gradientUnits="userSpaceOnUse">
<stop stop-color="#F0877E"/>
<stop offset="1" stop-color="#FABEB2"/>
</linearGradient>
<linearGradient id="paint6_linear_2078_41244" x1="107.923" y1="185.542" x2="98.7908" y2="188.334" gradientUnits="userSpaceOnUse">
<stop stop-color="#F0877E"/>
<stop offset="1" stop-color="#FABEB2"/>
</linearGradient>
<linearGradient id="paint7_linear_2078_41244" x1="98.4334" y1="190.078" x2="95.7884" y2="170.687" gradientUnits="userSpaceOnUse">
<stop stop-color="#03591B"/>
<stop offset="1" stop-color="#184825"/>
</linearGradient>
<linearGradient id="paint8_linear_2078_41244" x1="228.71" y1="106.646" x2="216.075" y2="68.7404" gradientUnits="userSpaceOnUse">
<stop stop-color="#5C1A00"/>
<stop offset="1" stop-color="#B94300"/>
</linearGradient>
<linearGradient id="paint9_linear_2078_41244" x1="226.296" y1="174.101" x2="121.402" y2="182.622" gradientUnits="userSpaceOnUse">
<stop stop-color="#313432"/>
<stop offset="1" stop-color="#015B1A"/>
</linearGradient>
<linearGradient id="paint10_linear_2078_41244" x1="220.406" y1="95.7489" x2="219.717" y2="106.942" gradientUnits="userSpaceOnUse">
<stop stop-color="#F0877E"/>
<stop offset="1" stop-color="#FABEB2"/>
</linearGradient>
<linearGradient id="paint11_linear_2078_41244" x1="219.211" y1="169.655" x2="218.576" y2="114.165" gradientUnits="userSpaceOnUse">
<stop stop-color="#037B1B"/>
<stop offset="1" stop-color="#27E700"/>
</linearGradient>
<linearGradient id="paint12_linear_2078_41244" x1="205.997" y1="130.024" x2="205.988" y2="129.806" gradientUnits="userSpaceOnUse">
<stop stop-color="#016115"/>
<stop offset="1" stop-color="#20D105"/>
</linearGradient>
<linearGradient id="paint13_linear_2078_41244" x1="196.673" y1="120.539" x2="196.539" y2="120.809" gradientUnits="userSpaceOnUse">
<stop/>
<stop offset="1"/>
</linearGradient>
<linearGradient id="paint14_linear_2078_41244" x1="239.749" y1="79.1644" x2="235.032" y2="98.2725" gradientUnits="userSpaceOnUse">
<stop stop-color="#F0877E"/>
<stop offset="1" stop-color="#FABEB2"/>
</linearGradient>
<linearGradient id="paint15_linear_2078_41244" x1="230.929" y1="105.926" x2="218.293" y2="68.0198" gradientUnits="userSpaceOnUse">
<stop stop-color="#5C1A00"/>
<stop offset="1" stop-color="#B94300"/>
</linearGradient>
<linearGradient id="paint16_linear_2078_41244" x1="205.355" y1="169.52" x2="201.83" y2="150.125" gradientUnits="userSpaceOnUse">
<stop/>
<stop offset="1"/>
</linearGradient>
<linearGradient id="paint17_linear_2078_41244" x1="186.948" y1="180.036" x2="174.902" y2="132.144" gradientUnits="userSpaceOnUse">
<stop/>
<stop offset="1"/>
</linearGradient>
<linearGradient id="paint18_linear_2078_41244" x1="218.509" y1="153.104" x2="212.78" y2="100.436" gradientUnits="userSpaceOnUse">
<stop stop-color="#01761C"/>
<stop offset="1" stop-color="#20D305"/>
</linearGradient>
<linearGradient id="paint19_linear_2078_41244" x1="243.251" y1="127.415" x2="207.265" y2="159.392" gradientUnits="userSpaceOnUse">
<stop stop-color="#F0877E"/>
<stop offset="1" stop-color="#FABEB2"/>
</linearGradient>
<linearGradient id="paint20_linear_2078_41244" x1="225.752" y1="169.579" x2="225.112" y2="114.09" gradientUnits="userSpaceOnUse">
<stop stop-color="#01761C"/>
<stop offset="1" stop-color="#20D205"/>
</linearGradient>
<linearGradient id="paint21_linear_2078_41244" x1="169.029" y1="79.1593" x2="168.93" y2="56.3579" gradientUnits="userSpaceOnUse">
<stop stop-color="#FFCF5C"/>
<stop offset="1" stop-color="#FFB300"/>
</linearGradient>
<linearGradient id="paint22_linear_2078_41244" x1="124.76" y1="79.3537" x2="124.661" y2="56.5495" gradientUnits="userSpaceOnUse">
<stop stop-color="#FFCF5C"/>
<stop offset="1" stop-color="#FFB300"/>
</linearGradient>
<linearGradient id="paint23_linear_2078_41244" x1="147.02" y1="108.429" x2="146.895" y2="79.459" gradientUnits="userSpaceOnUse">
<stop stop-color="#FFCF5C"/>
<stop offset="1" stop-color="#FFB52E"/>
</linearGradient>
<linearGradient id="paint24_linear_2078_41244" x1="146.814" y1="60.7674" x2="147.079" y2="121.987" gradientUnits="userSpaceOnUse">
<stop stop-color="#FFCF5C"/>
<stop offset="1" stop-color="#FFB300"/>
</linearGradient>
<linearGradient id="paint25_linear_2078_41244" x1="169.06" y1="86.3022" x2="168.951" y2="61.1198" gradientUnits="userSpaceOnUse">
<stop stop-color="#FFCF5C"/>
<stop offset="1" stop-color="#FFB300"/>
</linearGradient>
<linearGradient id="paint26_linear_2078_41244" x1="124.79" y1="86.4928" x2="124.682" y2="61.3104" gradientUnits="userSpaceOnUse">
<stop stop-color="#FFCF5C"/>
<stop offset="1" stop-color="#FFB300"/>
</linearGradient>
<linearGradient id="paint27_linear_2078_41244" x1="146.88" y1="75.9168" x2="146.911" y2="83.1683" gradientUnits="userSpaceOnUse">
<stop stop-color="#FFCF5C"/>
<stop offset="1" stop-color="#FFB300"/>
</linearGradient>
</defs>
</svg>
